PathFileType  4	(X/Y/Z) C:\Users\antoi\Documents\MyRepositories\mobilecap\ResultsAnalysis
DataRate	CameraRate	NumFrames	NumMarkers	Units	OrigDataRate	OrigDataStartFrame	OrigNumFrames
100.0	100.0	4	51	mm	100.0	1	1861
Frame#	Time	r_knee			r_shank_antsup			r_ankle			r_calc			r_5meta			r_toe			L_knee			L_shank_antsup			L_ankle			L_calc			L_5meta			L_toe			r_sh2			r_sh3			r_sh4			L_sh2			L_sh3			r_thigh1			r_thigh2			r_thigh3			r_thigh4			r_thigh5			L_thigh1			L_thigh2			L_thigh3			L_thigh4			r.ASIS			r.PSIS			L.ASIS			L.PSIS			C7			R_Shoulder			L_Shoulder			R_Sternum			L_Sternum			R_humerus			R_elbow_med			R_elbow_lat			R_forearm			R_wrist_radius			R_wrist_ulna			L_humerus			L_elbow_med			L_elbow_lat			L_forearm			L_wrist_radius			L_wrist_ulna			R_HJC			L_HJC			R_HJC_reg			L_HJC_reg			
		X1	Y1	Z1	X2	Y2	Z2	X3	Y3	Z3	X4	Y4	Z4	X5	Y5	Z5	X6	Y6	Z6	X7	Y7	Z7	X8	Y8	Z8	X9	Y9	Z9	X10	Y10	Z10	X11	Y11	Z11	X12	Y12	Z12	X13	Y13	Z13	X14	Y14	Z14	X15	Y15	Z15	X16	Y16	Z16	X17	Y17	Z17	X18	Y18	Z18	X19	Y19	Z19	X20	Y20	Z20	X21	Y21	Z21	X22	Y22	Z22	X23	Y23	Z23	X24	Y24	Z24	X25	Y25	Z25	X26	Y26	Z26	X27	Y27	Z27	X28	Y28	Z28	X29	Y29	Z29	X30	Y30	Z30	X31	Y31	Z31	X32	Y32	Z32	X33	Y33	Z33	X34	Y34	Z34	X35	Y35	Z35	X36	Y36	Z36	X37	Y37	Z37	X38	Y38	Z38	X39	Y39	Z39	X40	Y40	Z40	X41	Y41	Z41	X42	Y42	Z42	X43	Y43	Z43	X44	Y44	Z44	X45	Y45	Z45	X46	Y46	Z46	X47	Y47	Z47	X48	Y48	Z48	X49	Y49	Z49	X50	Y50	Z50	X51	Y51	Z51	

1	0.00000000	-192.65350	451.97899	-381.78931	-132.45477	399.45613	-389.99944	-222.88605	84.48263	-426.63989	-276.38724	57.34181	-473.26256	-115.51106	43.49268	-401.98248	-77.66899	62.38148	-454.35828	-179.47879	458.16739	-794.62566	-118.53046	377.50891	-783.14569	-211.29576	93.13309	-775.98401	-268.30880	54.42626	-731.81248	-109.01991	44.70114	-803.39813	-59.93266	62.16651	-748.39124	-153.64795	288.83701	-391.20317	-202.52608	411.78039	-361.20080	-231.22871	298.21729	-368.47087	-197.41874	399.77728	-819.54626	-215.60087	278.32104	-821.76968	-436.99145	520.76971	-371.48964	-324.29054	516.48691	-369.75883	-325.22669	404.57250	-392.29003	-442.79590	405.75056	-381.14865	-306.14546	448.96079	-365.13618	-456.22822	524.12928	-781.92508	-317.62397	519.52308	-787.60320	-464.11180	414.29453	-793.74066	-326.86601	406.38625	-776.87780	-536.52237	597.79584	-472.00986	-727.61082	519.47296	-546.76319	-533.25268	599.71111	-684.95782	-722.48320	518.63916	-627.36766	-657.02997	984.70960	-574.08168	-578.96740	946.32534	-429.15020	-591.64540	945.44979	-719.81122	-537.17473	914.55041	-556.65495	-539.75389	916.76680	-588.76504	-525.53329	842.17121	-370.27173	-520.24196	619.04384	-366.49560	-494.03379	647.47914	-306.36394	-403.03694	670.57759	-308.76295	-268.91256	674.87451	-342.59617	-267.43334	638.07069	-334.59725	-562.95331	850.75734	-793.24492	-517.80547	626.34779	-801.86168	-514.92417	664.93031	-862.41619	-410.24866	672.71579	-871.33862	-286.02878	677.24605	-856.56432	-287.38049	636.72764	-856.73820	-561.26116	481.82354	-475.63399	-557.54080	485.43417	-683.07665	-567.42013	508.10495	-501.87077	-558.49647	506.65387	-642.14762	
2	0.01000000	-192.63442	452.00679	-381.95075	-132.43895	399.45292	-390.04971	-222.86297	84.50411	-426.62214	-276.37690	57.34968	-473.21697	-115.52543	43.51693	-402.00486	-77.66318	62.39174	-454.37225	-179.45034	458.21018	-794.62399	-118.52103	377.52826	-783.06355	-211.28626	93.14101	-775.99193	-268.20157	54.49309	-731.74227	-109.04728	44.59965	-803.19676	-60.02232	62.10163	-748.37380	-153.52594	288.81488	-391.41291	-202.53844	411.79961	-361.04928	-231.40397	298.12946	-368.75564	-197.37940	399.80562	-819.54625	-215.55326	278.35696	-821.69992	-437.03815	520.84026	-371.63076	-324.24666	516.53864	-369.94913	-325.17618	404.65242	-392.37151	-442.79095	405.64255	-381.31280	-306.02753	448.99288	-365.10542	-456.20846	524.14958	-781.91122	-317.50671	519.65750	-787.68983	-463.93688	414.48264	-794.03359	-326.84210	406.43046	-776.90871	-536.36148	597.88054	-472.03465	-727.58408	519.52233	-546.74201	-533.22150	599.66848	-684.96748	-722.46987	518.66707	-627.34640	-656.84669	984.69500	-574.07879	-579.02093	946.11985	-429.18012	-591.49138	945.50357	-719.81310	-537.04115	913.92247	-557.03246	-538.51897	914.18238	-588.41534	-525.33509	842.19146	-370.20551	-519.86923	619.14965	-366.38363	-493.74695	647.62633	-306.30369	-402.77638	670.61300	-308.77757	-268.60442	674.99947	-342.74218	-267.03795	637.85533	-334.90390	-562.70083	850.87219	-793.17402	-517.18486	626.56784	-801.81652	-514.54235	665.13209	-862.52622	-409.82028	673.08722	-871.44846	-285.56066	677.73077	-856.59751	-286.80161	637.28769	-856.76759	-561.19366	481.88314	-475.61664	-557.52571	485.40415	-683.06177	-567.33999	508.14995	-501.86634	-558.44041	506.66167	-642.13232	
3	0.02000000	-192.57415	452.00545	-382.05205	-132.40175	399.47747	-390.09425	-222.86218	84.52317	-426.60366	-276.36239	57.35121	-473.17817	-115.57175	43.51058	-402.03919	-77.65824	62.40232	-454.36578	-179.40719	458.20293	-794.54811	-118.49628	377.54562	-783.01779	-211.28181	93.15164	-775.97872	-268.21397	54.49715	-731.74308	-109.05395	44.57171	-803.06847	-59.99202	62.16894	-748.42789	-153.50556	288.84397	-391.44770	-202.60975	411.79365	-360.77905	-231.37704	298.13004	-368.82773	-197.33535	399.85158	-819.53191	-215.53663	278.38461	-821.62649	-437.10005	520.88502	-371.78114	-324.15239	516.56527	-370.08934	-325.14064	404.68868	-392.46328	-442.86380	405.85614	-381.21875	-306.00444	449.09557	-365.08433	-456.17279	524.16682	-781.90575	-317.45386	519.71214	-787.70558	-463.80582	414.56247	-794.15627	-326.78099	406.36885	-776.76854	-536.27471	597.88757	-472.02936	-727.55506	519.56635	-546.72179	-533.09473	599.62860	-684.91109	-722.44419	518.68719	-627.32601	-656.67259	984.73233	-574.11168	-578.76567	946.19944	-429.19158	-591.31463	945.59086	-719.84431	-536.82702	913.01251	-557.56476	-538.92379	912.19183	-590.17422	-525.16192	842.23057	-370.21240	-519.56743	619.18241	-366.30205	-493.48498	647.64184	-306.34538	-402.49696	670.70740	-308.81789	-268.30237	675.04723	-342.86971	-266.72918	637.88322	-335.02220	-562.48403	851.00768	-793.13757	-516.60923	626.79881	-801.76687	-514.13031	665.36604	-862.76004	-409.33155	673.39747	-871.54127	-285.07699	678.14606	-856.57241	-286.33727	637.63782	-856.69767	-561.17152	481.88940	-475.56342	-557.47144	485.36202	-683.00879	-567.27958	508.17525	-501.82751	-558.38792	506.64585	-642.05993	
4	0.03000000	-192.49914	451.96906	-382.12957	-132.36258	399.52889	-390.13772	-222.87880	84.55767	-426.60650	-276.36267	57.34393	-473.15055	-115.58170	43.50649	-402.04908	-77.65051	62.41531	-454.34886	-179.34714	458.16290	-794.43465	-118.45778	377.57159	-783.00908	-211.27792	93.17384	-775.96082	-268.28749	54.45352	-731.72615	-109.04057	44.59953	-803.03956	-59.97855	62.19725	-748.42937	-153.50448	288.86850	-391.38784	-202.66755	411.72109	-360.65210	-231.23901	298.20055	-368.75989	-197.28373	399.86138	-819.37286	-215.51495	278.41613	-821.63858	-436.94432	520.87041	-371.85388	-324.07184	516.53462	-370.18276	-325.10151	404.68312	-392.57398	-442.92755	406.10369	-381.06754	-305.98889	449.16408	-365.13073	-456.12326	524.18432	-781.90291	-317.43448	519.71510	-787.67013	-464.02310	413.68941	-792.81988	-326.69638	406.24808	-776.52685	-536.23708	597.84811	-471.99492	-727.50961	519.60968	-546.64201	-532.94286	599.61146	-684.82728	-722.41854	518.76448	-627.37245	-656.71637	985.09411	-574.31506	-578.44448	946.32329	-429.25759	-591.09193	945.70177	-719.90520	-536.10374	913.49045	-557.39076	-541.99407	909.44462	-587.87820	-524.96712	842.28354	-370.26119	-519.31142	619.20868	-366.28278	-493.23917	647.63838	-306.38101	-402.22167	670.79957	-308.90261	-268.02062	675.04575	-342.98530	-266.43118	637.94818	-335.13381	-562.29261	851.14998	-793.15947	-516.09078	627.04345	-801.71212	-513.67703	665.57662	-862.93912	-408.85264	673.62842	-871.57425	-284.63638	678.47849	-856.48140	-285.92935	637.84359	-856.53070	-561.17648	481.86137	-475.51227	-557.41446	485.35006	-682.95629	-567.18268	508.12921	-501.81410	-558.34086	506.66116	-642.01886	
